<svg width="28" height="28" viewBox="0 0 28 28" fill="none" xmlns="http://www.w3.org/2000/svg">
<path d="M23.3334 22.1666V12.2499C23.3334 12.0688 23.2912 11.8902 23.2102 11.7282C23.1292 11.5662 23.0116 11.4253 22.8667 11.3166L14.7001 5.19159C14.4981 5.04013 14.2525 4.95825 14.0001 4.95825C13.7476 4.95825 13.502 5.04013 13.3001 5.19159L5.13341 11.3166C4.98852 11.4253 4.87092 11.5662 4.78992 11.7282C4.70892 11.8902 4.66675 12.0688 4.66675 12.2499V22.1666C4.66675 22.476 4.78966 22.7728 5.00846 22.9915C5.22725 23.2103 5.524 23.3333 5.83341 23.3333H10.5001C10.8095 23.3333 11.1062 23.2103 11.325 22.9915C11.5438 22.7728 11.6667 22.476 11.6667 22.1666V18.6666C11.6667 18.3572 11.7897 18.0604 12.0085 17.8416C12.2272 17.6228 12.524 17.4999 12.8334 17.4999H15.1667C15.4762 17.4999 15.7729 17.6228 15.9917 17.8416C16.2105 18.0604 16.3334 18.3572 16.3334 18.6666V22.1666C16.3334 22.476 16.4563 22.7728 16.6751 22.9915C16.8939 23.2103 17.1907 23.3333 17.5001 23.3333H22.1667C22.4762 23.3333 22.7729 23.2103 22.9917 22.9915C23.2105 22.7728 23.3334 22.476 23.3334 22.1666Z" stroke="#D9D9D9" stroke-width="2" stroke-linecap="round" stroke-linejoin="round"/>
</svg>
